<svg id="Layer_1" data-name="Layer 1" xmlns="http://www.w3.org/2000/svg" viewBox="0 0 512 512"><defs><style>.cls-1{fill:#fff;}.cls-2{fill:#1e2939;}.cls-3{fill:#4b5565;}</style></defs><rect class="cls-1" width="512" height="512"/><path class="cls-2" d="M239.09,421.94A11,11,0,0,1,238,400c31.72-3,59.31-16.13,82-39,26-26.24,39.24-58.7,39.24-96.49a10.17,10.17,0,0,1,10.15-10.18h1.73a10.17,10.17,0,0,1,10.15,10.12c0,43.87-15.35,81.55-45.63,112.06-26.46,26.68-58.6,42-95.52,45.45C239.78,421.93,239.43,421.94,239.09,421.94Z"/><path class="cls-3" d="M371.14,257.11a7.32,7.32,0,0,1,7.32,7.29v.06c0,43-15.09,80-44.81,110-26,26.23-57.51,41.19-93.78,44.61a6.79,6.79,0,0,1-.78,0,8.2,8.2,0,0,1-8.19-8.19h0a8.17,8.17,0,0,1,7.37-8.14c32.42-3.07,60.54-16.44,83.76-39.84,26.59-26.79,40.07-59.92,40.07-98.48h0a7.31,7.31,0,0,1,7.31-7.34h1.73m0-5.67h-1.73a13,13,0,0,0-13,13c0,37-12.93,68.78-38.42,94.48-22.23,22.4-49.24,35.25-80.28,38.19a13.85,13.85,0,0,0,1.36,27.64c.43,0,.88,0,1.31-.06,37.61-3.55,70.33-19.11,97.27-46.27,30.83-31.06,46.46-69.42,46.46-114v-.08a13,13,0,0,0-13-12.94Z"/><path class="cls-2" d="M239,389a11,11,0,0,1-1.28-22A98.33,98.33,0,0,0,296.8,337.9c19.74-19.9,29.75-44.61,29.75-73.45a10.12,10.12,0,0,1,10.12-10.18h1.78a10.16,10.16,0,0,1,10.13,10.07v.11c0,34.86-12.16,64.79-36.14,89-20,20.21-44.3,32.16-72.08,35.54A11.87,11.87,0,0,1,239,389Z"/><path class="cls-3" d="M338.45,257.11a7.29,7.29,0,0,1,7.29,7.25v.1c0,34.08-11.89,63.34-35.31,87-19.62,19.78-43.25,31.43-70.41,34.72A8.13,8.13,0,0,1,230.9,378h0a8.19,8.19,0,0,1,7.2-8.12c23.44-2.89,43.82-12.94,60.72-30,20.28-20.45,30.56-45.83,30.56-75.44h0a7.3,7.3,0,0,1,7.29-7.34h1.78m0-5.67h-1.78a13,13,0,0,0-13,13.05c0,28-9.73,52.07-28.92,71.41a95.56,95.56,0,0,1-57.38,28.34A13.86,13.86,0,0,0,239,391.86a13.25,13.25,0,0,0,1.67-.1c28.43-3.45,53.25-15.68,73.76-36.35,24.52-24.72,37-55.32,37-91v-.13a13,13,0,0,0-13-12.89Z"/><path class="cls-2" d="M223.49,357.24c-26.21,0-48.46-9-66.13-26.65s-26.65-39.93-26.65-66.14V121.21c0-9.06,2.86-16.59,8.51-22.39s13.14-8.76,22.22-8.76S178,93,183.85,98.8s8.74,13.35,8.74,22.41v19.23h92.53c9.06,0,16.53,2.87,22.2,8.54s8.54,13.14,8.54,22.2c0,20.38-10.63,31.15-30.74,31.15H192.59v62.12a30.6,30.6,0,0,0,30.9,30.9,28.93,28.93,0,0,0,21.71-8.93,30,30,0,0,0,8.77-22v-3.74c0-8.81,3-16.22,9-22A30.69,30.69,0,0,1,285.12,230c8.79,0,16.18,2.94,22,8.74s8.75,13.21,8.75,22v3.74c0,25.93-9,48.1-26.64,65.92S249.42,357.24,223.49,357.24Z"/><path class="cls-3" d="M161.44,92.89q12.5,0,20.41,7.91t7.91,20.41v22.07h95.36q12.5,0,20.2,7.7t7.7,20.2q0,28.32-27.9,28.31H189.76v65a33.41,33.41,0,0,0,33.73,33.73,31.89,31.89,0,0,0,23.74-9.78,32.93,32.93,0,0,0,9.57-23.95v-3.74q0-12.07,8.12-20a27.82,27.82,0,0,1,20.2-7.91q12.08,0,20,7.91t7.91,20v3.74q0,37.91-25.82,63.93t-63.71,26q-38.31,0-64.13-25.82t-25.82-64.13V121.21q0-12.49,7.71-20.41t20.19-7.91m0-5.67c-9.87,0-18,3.24-24.25,9.63s-9.32,14.54-9.32,24.36V264.45c0,27,9.25,49.92,27.48,68.14s41.15,27.48,68.14,27.48c26.71,0,49.5-9.32,67.74-27.7s27.46-41.22,27.46-67.92v-3.74c0-9.57-3.22-17.64-9.57-24s-14.44-9.57-24-9.57-17.66,3.2-24.15,9.52-9.84,14.45-9.84,24v3.74a27.23,27.23,0,0,1-7.95,20,26.23,26.23,0,0,1-19.69,8.09,27.76,27.76,0,0,1-28.06-28.07V205.16h89.69c21.65,0,33.57-12.07,33.57-34,0-9.84-3.15-18-9.36-24.21s-14.37-9.36-24.21-9.36H195.43v-16.4c0-9.84-3.22-18.06-9.57-24.41s-14.58-9.58-24.42-9.58Z"/></svg>